<svg width="7141" height="9217" viewBox="0 0 7141 9217" fill="none" xmlns="http://www.w3.org/2000/svg">
<path fill-rule="evenodd" clip-rule="evenodd" d="M300 0C134.315 0 0 134.315 0 300V8916.46C0 9082.15 134.314 9216.46 300 9216.46H6841C7006.69 9216.46 7141 9082.15 7141 8916.46V300C7141 134.315 7006.69 0 6841 0H300ZM780.426 580.426C669.969 580.426 580.426 669.969 580.426 780.426V8436.04C580.426 8546.49 669.969 8636.04 780.426 8636.04H6378.16C6488.62 8636.04 6578.16 8546.49 6578.16 8436.04V780.426C6578.16 669.969 6488.62 580.426 6378.16 580.426H780.426Z" fill="#121417"/>
<path d="M4320.31 2662.09C4495.86 3189.22 3964.26 3690 3460.09 3690C2955.92 3690 2468.21 3312.22 2582.32 2662.09C2588.49 2626.95 3214.31 2644.52 3460.09 3189.22C3609.31 2723.59 4179.86 2618.16 4320.31 2662.09Z" fill="#121417"/>
<path fill-rule="evenodd" clip-rule="evenodd" d="M3954.96 5813.06C5152.8 5661.95 6072.35 4645.58 6072.35 3405.21C6072.35 2059.83 4762.05 1051.98 3821 1065.92C3307.68 1065.92 1817.57 1048.58 1271.78 1042.01C1159.92 1040.67 1068.88 1131.15 1069.47 1243.02C1071.83 1693.64 1077.17 2787.4 1077.17 3440.39C1077.17 3970.45 1071.01 6930.44 1069 7880.02C1068.66 8042.63 1200.38 8173.26 1362.99 8173.26C1525.7 8173.26 1657.6 8041.36 1657.6 7878.65V5223.21C1657.6 5217.24 1664.56 5213.93 1669.14 5217.76C1743.03 5279.46 2152.77 5615.02 2352.35 5638.97C2836.04 5638.97 2667.05 5174.29 2598.59 5128.9C1848.12 4631.4 1752.09 4264.72 1699.37 4063.42C1697.11 4054.77 1694.93 4046.43 1692.78 4038.4C1638.57 3836.15 1638.34 2252.19 1666.3 1757.81C1671.6 1664.2 1738.42 1617.61 1832.11 1621.09C2200.85 1634.82 3178.97 1646.35 3926.54 1646.35C6344.98 2297.13 5456.75 5234.43 3785.83 5234.43C3779.18 5233.52 3772.77 5233.05 3766.58 5233.02C3767.28 5230.41 3767.83 5227.95 3768.24 5225.64C3769.7 5217.39 3768.19 5195.09 3766.13 5164.65L3766.13 5164.62L3766.13 5164.61C3759.41 5065.35 3746.84 4879.6 3812.21 4812.31C3826.01 4798.1 3868.83 4780.79 3924.39 4758.33C4017.48 4720.7 4146.32 4668.62 4234.34 4592.45C4461.99 4395.45 4604.49 4081.87 4586.11 3906.49C4278.31 3730.6 3671.5 3932.87 3468.44 4410.07C3143.84 3844.93 2660.15 3774.57 2343.55 3906.49C2325.82 4296.75 2590.72 4539 2932.78 4706.77C2958.55 4719.42 2982.75 4727.98 3005.29 4735.95C3151.96 4787.85 3228.28 4814.85 3209.2 5778.37C3206.7 5801.7 3205.4 5825.64 3205.4 5850.04C3205.4 5863.89 3205.82 5877.59 3206.64 5891.12C3206.25 5906.52 3205.83 5922.14 3205.4 5937.98C3207.16 5937.62 3209 5937.09 3210.94 5936.42C3222.5 6025.25 3251.53 6104.7 3292.45 6166.39C3305.29 6191.96 3322.03 6216.11 3342.7 6237.97L5016.93 8008.68C5078.42 8073.72 5162.38 8104.77 5245.3 8101.19C5252.65 8101.73 5260.07 8102 5267.55 8102H5676.55C5813.52 8102 5924.55 7990.97 5924.55 7854C5924.55 7717.03 5813.52 7606 5676.55 7606H5452.16C5450.72 7604.42 5449.27 7602.84 5447.79 7601.28L3908.21 5972.99C3908.46 5973.04 3908.7 5973.1 3908.95 5973.16C3900.15 5964.36 3873.77 5929.19 3882.56 5885.21C3892.67 5841.04 3918.96 5823.02 3954.96 5813.06Z" fill="#121417"/>
</svg>
